<svg width="100%" height="100%" viewBox="0 0 478 55" version="1.1" xmlns="http://www.w3.org/2000/svg" xmlns:xlink="http://www.w3.org/1999/xlink" xml:space="preserve" xmlns:serif="http://www.serif.com/" style="fill-rule:evenodd;clip-rule:evenodd;stroke-linejoin:round;stroke-miterlimit:2;">
    <path d="M19.2,54.15c-3.3,0 -6.175,-0.6 -8.625,-1.8c-2.4,-1.25 -4.4,-3.025 -6,-5.325c-1.55,-2.3 -2.7,-5.125 -3.45,-8.475c-0.75,-3.35 -1.125,-7.175 -1.125,-11.475c0,-4.25 0.375,-8.05 1.125,-11.4c0.75,-3.4 1.9,-6.25 3.45,-8.55c1.6,-2.3 3.6,-4.05 6,-5.25c2.45,-1.25 5.325,-1.875 8.625,-1.875c3.3,0 6.15,0.625 8.55,1.875c2.45,1.2 4.45,2.95 6,5.25c1.6,2.3 2.775,5.15 3.525,8.55c0.75,3.35 1.125,7.15 1.125,11.4c0,4.3 -0.375,8.125 -1.125,11.475c-0.75,3.35 -1.925,6.175 -3.525,8.475c-1.55,2.3 -3.55,4.075 -6,5.325c-2.4,1.2 -5.25,1.8 -8.55,1.8Zm0,-6.975c3.75,0 6.4,-1.4 7.95,-4.2c1.55,-2.85 2.325,-6.7 2.325,-11.55l0,-8.775c0,-4.8 -0.775,-8.6 -2.325,-11.4c-1.55,-2.85 -4.2,-4.275 -7.95,-4.275c-3.75,0 -6.4,1.425 -7.95,4.275c-1.55,2.8 -2.325,6.6 -2.325,11.4l0,8.85c0,4.8 0.775,8.625 2.325,11.475c1.55,2.8 4.2,4.2 7.95,4.2Zm46.771,6.075l-0,-52.35l19.575,0c5,0 8.8,1.4 11.4,4.2c2.65,2.8 3.975,6.65 3.975,11.55c-0,4.9 -1.325,8.75 -3.975,11.55c-2.6,2.8 -6.4,4.2 -11.4,4.2l-11.175,0l-0,20.85l-8.4,0Zm8.4,-27.825l9.9,0c5.2,0 7.8,-2.4 7.8,-7.2l-0,-3.225c-0,-4.75 -2.6,-7.125 -7.8,-7.125l-9.9,0l-0,17.55Zm54.721,27.825l-0,-52.35l32.775,0l-0,7.05l-24.375,0l-0,15.225l23.475,0l-0,7.05l-23.475,0l-0,15.975l24.375,0l-0,7.05l-32.775,0Zm71.145,0l-8.325,0l0,-52.35l19.575,0c5,0 8.801,1.4 11.4,4.2c2.65,2.8 3.975,6.65 3.975,11.55c0,4 -0.975,7.3 -2.925,9.9c-1.95,2.6 -4.75,4.2 -8.399,4.8l12.075,21.9l-9.3,0l-11.1,-21.15l-6.975,0l-0,21.15Zm10.049,-27.9c5.2,0 7.8,-2.375 7.8,-7.125l0,-3.225c0,-4.75 -2.6,-7.125 -7.8,-7.125l-10.05,0l0,17.475l10.051,0Zm72.945,27.9l-3.975,-13.95l-16.65,0l-3.975,13.95l-8.55,0l15.3,-52.35l11.475,0l15.3,52.35l-8.925,0Zm-12,-43.875l-0.6,0l-6.45,22.95l13.5,0l-6.45,-22.95Zm67.021,-1.425l0,45.3l-8.4,0l0,-45.3l-16.425,0l0,-7.05l41.25,0l0,7.05l-16.425,0Zm58.771,46.2c-3.3,0 -6.175,-0.6 -8.625,-1.8c-2.4,-1.25 -4.4,-3.025 -6,-5.325c-1.55,-2.3 -2.7,-5.125 -3.45,-8.475c-0.75,-3.35 -1.125,-7.175 -1.125,-11.475c0,-4.25 0.375,-8.05 1.125,-11.4c0.75,-3.4 1.9,-6.25 3.45,-8.55c1.6,-2.3 3.6,-4.05 6,-5.25c2.45,-1.25 5.325,-1.875 8.625,-1.875c3.3,-0 6.15,0.625 8.55,1.875c2.45,1.2 4.45,2.95 6,5.25c1.6,2.3 2.775,5.15 3.525,8.55c0.75,3.35 1.125,7.15 1.125,11.4c0,4.3 -0.375,8.125 -1.125,11.475c-0.75,3.35 -1.925,6.175 -3.525,8.475c-1.55,2.3 -3.55,4.075 -6,5.325c-2.4,1.2 -5.25,1.8 -8.55,1.8Zm0,-6.975c3.75,0 6.4,-1.4 7.95,-4.2c1.55,-2.85 2.325,-6.7 2.325,-11.55l0,-8.775c0,-4.8 -0.775,-8.6 -2.325,-11.4c-1.55,-2.85 -4.2,-4.275 -7.95,-4.275c-3.75,0 -6.4,1.425 -7.95,4.275c-1.55,2.8 -2.325,6.6 -2.325,11.4l0,8.85c0,4.8 0.775,8.625 2.325,11.475c1.55,2.8 4.2,4.2 7.95,4.2Zm53.896,-34.2l-0.675,0l-0,40.275l-7.35,0l-0,-52.35l10.8,0l15.375,40.275l0.675,0l-0,-40.275l7.35,0l-0,52.35l-10.8,0l-15.375,-40.275Z" style="fill-rule:nonzero;"/></svg>